<?xml version="1.0" encoding="utf-8"?>
<!-- Generator: Adobe Illustrator 24.1.0, SVG Export Plug-In . SVG Version: 6.00 Build 0)  -->
<!DOCTYPE svg PUBLIC "-//W3C//DTD SVG 1.1//EN" "http://www.w3.org/Graphics/SVG/1.1/DTD/svg11.dtd" [
	<!ENTITY ns_extend "http://ns.adobe.com/Extensibility/1.0/">
	<!ENTITY ns_ai "http://ns.adobe.com/AdobeIllustrator/10.0/">
	<!ENTITY ns_graphs "http://ns.adobe.com/Graphs/1.0/">
	<!ENTITY ns_vars "http://ns.adobe.com/Variables/1.0/">
	<!ENTITY ns_imrep "http://ns.adobe.com/ImageReplacement/1.0/">
	<!ENTITY ns_sfw "http://ns.adobe.com/SaveForWeb/1.0/">
	<!ENTITY ns_custom "http://ns.adobe.com/GenericCustomNamespace/1.0/">
	<!ENTITY ns_adobe_xpath "http://ns.adobe.com/XPath/1.0/">
]>
<svg xmlns="http://www.w3.org/2000/svg" width="700" height="622" viewBox="0 0 37 37">
    <g>
        <title>Gonçalo Engenharia</title>
        <path id="svg_1" d="m18.5,37.18349c-9.94475,0 -18,-8.30159 -18,-18.55046c0,-10.24887 8.05525,-18.55046 18,-18.55046c9.94475,0 18,8.30159 18,18.55046c0,10.24887 -8.05525,18.55046 -18,18.55046z" opacity="undefined" fill="#1d58a5" />
        <path id="svg_3" d="m12.53721,1.06866l0.20604,26.37653l-4.77063,0l0.04613,-23.85317c1.50615,-1.18453 3.01231,-2.09433 4.51846,-2.52336z" opacity="undefined" fill="#fff"/>
        <rect id="svg_4" height="4.58715" width="21" y="23.17889" x="8" fill="#fff"/>
        <rect id="svg_5" height="13.0275" width="4.77063" y="14.73854" x="24.37155" fill="#fff"/>
        <rect transform="rotate(120 24.0046 11.9633)" id="svg_6" height="15" width="4.77063" y="4.46333" x="21.61926" fill="#fff"/>
        <rect transform="rotate(60 13.1789 11.9312)" id="svg_7" height="15" width="4.77063" y="4.4312" x="10.79359" fill="#fff"/>
        <!--text xmlns="http://www.w3.org/2000/svg" transform="matrix(0.436651 0 0 0.374255 10.0363 11.9893)" stroke="#000" xml:space="preserve" text-anchor="start" font-family="'Red Hat Text'" font-size="24" stroke-width="0" id="svg_8" y="23" x="10" fill="#fff">G</text-->
    </g>
</svg>
